# xmcd
#
# Track frame offsets:
#	150
#	12708
#	32016
#	43562
#	59456
#	72617
#	84457
#	95160
#	109406
#	126955
#	140123
#	152566
#
# Disc length: 2242 seconds
# Revision: 2
# Processed by: cddbd v1.5.2PL0 Copyright (c) Steve Scherf et al.
# Submitted via: dBpowerAMP V12.0
#
DISCID=b308c00c
DTITLE=Lisa Layne - I'm In A Good Mood ... To Be Bad.
DYEAR=2015
DGENRE=Country
TTITLE0=Two Steppin'
TTITLE1=Till The Grass Grows Over Me
TTITLE2=All The Love In San Antone
TTITLE3=I'm In A Good Mood
TTITLE4=It's Your Love
TTITLE5=To Sir With Love
TTITLE6=You Ain't Here To Hear Me Say Goodbye
TTITLE7=Good As Gone
TTITLE8=Busy Makin Plans
TTITLE9=You Taught Me All I Know
TTITLE10=Better Mind To Stay
TTITLE11=Til I Know It's Real
EXTD=
EXTT0=
EXTT1=
EXTT2=
EXTT3=
EXTT4=
EXTT5=
EXTT6=
EXTT7=
EXTT8=
EXTT9=
EXTT10=
EXTT11=
PLAYORDER=
